<svg xmlns="http://www.w3.org/2000/svg" viewBox="0 0 168.7 36"><defs><style>.cls-1{fill:#231815;}.cls-2{fill:#f43f5e;}</style></defs><g id="レイヤー_2" data-name="レイヤー 2"><g id="レイヤー_1-2" data-name="レイヤー 1"><path class="cls-1" d="M33.57,28.93c-5,4.55-11.24,0-11.31,0-8.24-6-14.58-.55-14.64-.5a.27.27,0,0,0-.06.17.23.23,0,0,0,.06.16.24.24,0,0,0,.14.12.25.25,0,0,0,.17,0c5.41-2.12,12.14,4.47,12.22,4.55A8.59,8.59,0,0,0,25.74,36,6,6,0,0,0,27,35.86c4.37-.93,6.86-6.35,7-6.58a.25.25,0,0,0,0-.17.31.31,0,0,0-.1-.15.38.38,0,0,0-.17-.08A.34.34,0,0,0,33.57,28.93Z"/><path class="cls-1" d="M43.31,9.68H37.22a.26.26,0,0,0-.26.26V32.85a.26.26,0,0,0,.26.26h6.09a.26.26,0,0,0,.26-.26V9.94A.26.26,0,0,0,43.31,9.68Z"/><path class="cls-1" d="M68.51,15.66a10.7,10.7,0,0,0-2.32-3.36,11.12,11.12,0,0,0-3.45-2.25,10.62,10.62,0,0,0-4.2-.82,11.19,11.19,0,0,0-7.19,2.56l-1.82-2a.27.27,0,0,0-.19-.08H47.92a.24.24,0,0,0-.18.07.25.25,0,0,0-.08.18v23a.27.27,0,0,0,.08.18.24.24,0,0,0,.18.07h6a.24.24,0,0,0,.18-.07.27.27,0,0,0,.08-.18V19.75a4,4,0,0,1,.33-1.6A4.15,4.15,0,0,1,56.85,16a4.54,4.54,0,0,1,3.36,0,4.13,4.13,0,0,1,2.27,2.2,3.86,3.86,0,0,1,.33,1.6v13.1a.27.27,0,0,0,.08.18.25.25,0,0,0,.18.08h6.05a.27.27,0,0,0,.19-.08.26.26,0,0,0,.07-.18V19.75A9.76,9.76,0,0,0,68.51,15.66Z"/><path class="cls-1" d="M47.92,2.79a.3.3,0,0,0,0-.16.39.39,0,0,0-.08-.14.24.24,0,0,0-.14-.05.25.25,0,0,0-.15.05l-.29.14c-1.54.78-2.89-.25-4.2-1.25a5.37,5.37,0,0,0-3-1.28,4.83,4.83,0,0,0-1.25.17h-.06a5.86,5.86,0,0,0-1.7.79.34.34,0,0,0-.08.09.27.27,0,0,0,0,.12V7.58a.32.32,0,0,0,0,.14.31.31,0,0,0,.11.09h.11a.23.23,0,0,0,.16-.06l.19-.15h.07l.06-.06a9.76,9.76,0,0,1,1-.7,4.14,4.14,0,0,1,2.55-.71h.7a5.92,5.92,0,0,0,4.32-1l.19-.08a2.26,2.26,0,0,0,.34-.35h.06L47,4.49a6.86,6.86,0,0,0,.78-1.43Z"/><path class="cls-1" d="M8.57,23a.24.24,0,0,0,0-.12.54.54,0,0,0-.05-.11A10,10,0,0,1,6.16,16.1a10.09,10.09,0,0,1,9.28-9.84,10.1,10.1,0,0,1,7.91,17.26.41.41,0,0,0-.05.09.23.23,0,0,0,0,.11.2.2,0,0,0,0,.11.27.27,0,0,0,.07.08l.56.41a12.27,12.27,0,0,0,5,2l.12,0a.22.22,0,0,0,.09-.07A16.27,16.27,0,1,0,0,16a16.19,16.19,0,0,0,2.93,9.66.25.25,0,0,0,.15.1.31.31,0,0,0,.19,0A29.32,29.32,0,0,1,8.4,23.2a.26.26,0,0,0,.11-.07A.39.39,0,0,0,8.57,23Z"/><path class="cls-2" d="M101.49,0a.45.45,0,0,1,.37.19.43.43,0,0,1,.19.37V5.14a.55.55,0,0,1-.19.42.51.51,0,0,1-.37.14H94.37a.21.21,0,0,0-.23.23V32a.59.59,0,0,1-.19.42.48.48,0,0,1-.37.14H88.1a.49.49,0,0,1-.56-.56V5.93a.21.21,0,0,0-.24-.23H80.42A.73.73,0,0,1,80,5.56a.68.68,0,0,1-.14-.42V.58A.51.51,0,0,1,80,.21.62.62,0,0,1,80.42,0Z"/><path class="cls-2" d="M111.47,33a10.7,10.7,0,0,1-6.7-2,8.41,8.41,0,0,1-3.09-5.58,27.91,27.91,0,0,1-.37-4.79,27.35,27.35,0,0,1,.37-4.79,8.21,8.21,0,0,1,3.09-5.45,10.59,10.59,0,0,1,6.7-2,10.12,10.12,0,0,1,6.55,2,8.34,8.34,0,0,1,3.14,5.45,27.35,27.35,0,0,1,.37,4.79,27.48,27.48,0,0,1-.37,4.74A8.46,8.46,0,0,1,118.07,31,10.31,10.31,0,0,1,111.47,33Zm0-5.63a2.91,2.91,0,0,0,2.06-.8,3.81,3.81,0,0,0,1.17-2.14,33.26,33.26,0,0,0,.23-3.81,31.41,31.41,0,0,0-.23-3.77,3.38,3.38,0,0,0-1.13-2.09,3,3,0,0,0-2.15-.79,3.1,3.1,0,0,0-2.15.79,3.43,3.43,0,0,0-1.08,2.09,23.52,23.52,0,0,0-.23,3.77,32.78,32.78,0,0,0,.18,3.81,3.81,3.81,0,0,0,1.17,2.14A3.14,3.14,0,0,0,111.47,27.34Z"/><path class="cls-2" d="M138.14.58a.51.51,0,0,1,.14-.37.63.63,0,0,1,.43-.19h5.47a.47.47,0,0,1,.38.19.45.45,0,0,1,.18.37V32a.58.58,0,0,1-.18.42.5.5,0,0,1-.38.14h-5.47a.67.67,0,0,1-.43-.14.68.68,0,0,1-.14-.42V31a.18.18,0,0,0-.09-.18c-.06,0-.12,0-.19.09a6.15,6.15,0,0,1-5,2q-5.72,0-7.35-7.4a26.47,26.47,0,0,1-.47-5.17,27.94,27.94,0,0,1,.43-4.88Q127,8.31,133,8.31a7.59,7.59,0,0,1,2.81.46,4.77,4.77,0,0,1,2.06,1.49c.07.09.13.12.19.09a.18.18,0,0,0,.09-.18Zm-.37,24.06a18.39,18.39,0,0,0,.33-4.05,18.68,18.68,0,0,0-.38-4.1q-.6-2.55-2.76-2.55a2.49,2.49,0,0,0-1.78.65,3.8,3.8,0,0,0-1,1.86,15,15,0,0,0-.42,4.14,18.06,18.06,0,0,0,.33,4c.4,1.83,1.37,2.75,2.9,2.75S137.3,26.44,137.77,24.64Z"/><path class="cls-2" d="M158.64,33A10.67,10.67,0,0,1,152,31a8.33,8.33,0,0,1-3.09-5.58,27.86,27.86,0,0,1-.38-4.79,27.28,27.28,0,0,1,.38-4.79A8.13,8.13,0,0,1,152,10.35a10.56,10.56,0,0,1,6.69-2,10.1,10.1,0,0,1,6.55,2,8.3,8.3,0,0,1,3.14,5.45,27.35,27.35,0,0,1,.37,4.79,27.48,27.48,0,0,1-.37,4.74A8.38,8.38,0,0,1,165.24,31,10.31,10.31,0,0,1,158.64,33Zm0-5.63a2.89,2.89,0,0,0,2.06-.8,3.81,3.81,0,0,0,1.17-2.14,31.14,31.14,0,0,0,.23-3.81,29.47,29.47,0,0,0-.23-3.77,3.37,3.37,0,0,0-1.12-2.09,3,3,0,0,0-2.16-.79,3.1,3.1,0,0,0-2.15.79,3.49,3.49,0,0,0-1.08,2.09,24.75,24.75,0,0,0-.23,3.77,30.42,30.42,0,0,0,.19,3.81,3.7,3.7,0,0,0,1.17,2.14A3.11,3.11,0,0,0,158.64,27.34Z"/></g></g></svg>